<?xml version="1.0" encoding="UTF-8" standalone="no"?>
<!-- Generator: Adobe Illustrator 16.0.0, SVG Export Plug-In . SVG Version: 6.00 Build 0)  -->

<svg
   xmlns:dc="http://purl.org/dc/elements/1.1/"
   xmlns:cc="http://creativecommons.org/ns#"
   xmlns:rdf="http://www.w3.org/1999/02/22-rdf-syntax-ns#"
   xmlns:svg="http://www.w3.org/2000/svg"
   xmlns="http://www.w3.org/2000/svg"
   xmlns:sodipodi="http://sodipodi.sourceforge.net/DTD/sodipodi-0.dtd"
   xmlns:inkscape="http://www.inkscape.org/namespaces/inkscape"
   version="1.1"
   id="Layer_1"
   x="0px"
   y="0px"
   width="30"
   height="30"
   viewBox="0 0 19.335938 19.335938"
   xml:space="preserve"
   sodipodi:docname="shipping.svg"
   inkscape:version="0.92.4 (5da689c313, 2019-01-14)"><metadata
   id="metadata946"><rdf:RDF><cc:Work
       rdf:about=""><dc:format>image/svg+xml</dc:format><dc:type
         rdf:resource="http://purl.org/dc/dcmitype/StillImage" /><dc:title></dc:title></cc:Work></rdf:RDF></metadata><defs
   id="defs944" /><sodipodi:namedview
   pagecolor="#ffffff"
   bordercolor="#666666"
   borderopacity="1"
   objecttolerance="10"
   gridtolerance="10"
   guidetolerance="10"
   inkscape:pageopacity="0"
   inkscape:pageshadow="2"
   inkscape:window-width="1366"
   inkscape:window-height="741"
   id="namedview942"
   showgrid="false"
   inkscape:zoom="2.6074563"
   inkscape:cx="69.419689"
   inkscape:cy="45.254834"
   inkscape:window-x="-9"
   inkscape:window-y="-9"
   inkscape:window-maximized="1"
   inkscape:current-layer="Layer_1" />
<g
   id="g939"
   transform="matrix(0.05932201,0,0,0.05932201,0,-0.40873852)">
	<path
   style="fill:#ff511f"
   d="m 326.999,168.498 -60,-79.982 C 264.166,84.739 259.721,82.517 255,82.517 l -15,0.001 h -44.971 c -0.01,0 -0.02,-0.001 -0.029,-0.001 H 135 105 75 30 15 c -0.063,0 -0.123,0.009 -0.187,0.01 -0.405,0.005 -0.809,0.024 -1.206,0.061 -0.061,0.006 -0.121,0.007 -0.182,0.014 -0.424,0.044 -0.842,0.112 -1.254,0.19 -0.139,0.027 -0.275,0.057 -0.414,0.086 -0.34,0.076 -0.675,0.162 -1.006,0.26 -0.104,0.03 -0.207,0.058 -0.311,0.09 -0.369,0.118 -0.73,0.252 -1.087,0.397 -0.143,0.06 -0.284,0.12 -0.425,0.183 -0.283,0.126 -0.563,0.262 -0.836,0.404 -0.105,0.054 -0.214,0.104 -0.318,0.162 -0.362,0.199 -0.715,0.414 -1.057,0.643 -0.096,0.063 -0.188,0.13 -0.281,0.194 -0.283,0.197 -0.559,0.403 -0.826,0.618 -0.075,0.061 -0.152,0.119 -0.227,0.182 -0.33,0.275 -0.649,0.563 -0.953,0.867 -0.047,0.044 -0.088,0.092 -0.133,0.137 -0.26,0.266 -0.51,0.541 -0.75,0.826 -0.069,0.082 -0.139,0.162 -0.206,0.246 -0.265,0.326 -0.519,0.661 -0.755,1.01 -0.041,0.061 -0.077,0.123 -0.117,0.184 -0.191,0.29 -0.371,0.588 -0.542,0.893 -0.071,0.128 -0.142,0.256 -0.21,0.386 -0.16,0.306 -0.311,0.618 -0.451,0.937 -0.059,0.135 -0.115,0.271 -0.17,0.408 -0.123,0.305 -0.238,0.615 -0.342,0.93 -0.049,0.15 -0.096,0.301 -0.141,0.453 -0.1,0.339 -0.189,0.683 -0.266,1.032 -0.021,0.098 -0.043,0.196 -0.063,0.296 -0.077,0.39 -0.136,0.785 -0.182,1.186 C 0.088,95.924 0.076,96.047 0.065,96.171 0.028,96.613 0,97.061 0,97.516 v 60 99.969 c 0,8.284 6.716,15 15,15 H 52.301 147.699 180 182.301 277.699 315 c 8.284,0 15,-6.716 15,-15 v -79.986 c 0,-3.248 -1.053,-6.406 -3.001,-9.001 z"
   id="path909"
   inkscape:connector-curvature="0" />
	<path
   style="fill:#dedee0"
   d="M 225,22.515 H 135 45 c -8.285,0 -15,6.716 -15,15 v 55.001 h 45 60 60 c 0.01,0 0.02,10e-4 0.029,10e-4 H 240 V 37.515 c 0,-8.284 -6.717,-15 -15,-15 z"
   id="path911"
   inkscape:connector-curvature="0" />
	<path
   style="fill:#d6d5d8"
   d="M 195.029,92.517 H 240 V 37.515 c 0,-8.284 -6.717,-15 -15,-15 h -90 v 70.001 h 60 c 0.01,0 0.02,10e-4 0.029,10e-4 z"
   id="path913"
   inkscape:connector-curvature="0" />
	<path
   style="fill:#ff2300"
   d="m 326.999,168.498 -60,-79.982 C 264.166,84.739 259.721,82.517 255,82.517 l -15,0.001 H 195.029 C 203.3,82.534 210,89.242 210,97.516 v 14.999 45.001 c 0,8.284 -6.716,15 -15,15 h -15 v 18.618 51.351 15 15.001 h 111.361 v -10e-4 H 315 c 8.284,0 15,-6.716 15,-15 v -79.986 c 0,-3.248 -1.053,-6.406 -3.001,-9.001 z"
   id="path915"
   inkscape:connector-curvature="0" />
	<g
   id="g925">
		<path
   style="fill:#57555d"
   d="m 100,207.485 c -22.346,0 -41.311,14.736 -47.697,35 -0.373,1.185 -0.704,2.388 -0.99,3.607 C 50.455,249.751 50,253.566 50,257.485 v 0.002 c 0,5.224 0.809,10.261 2.301,14.998 6.387,20.263 25.352,35 47.699,35 22.347,0 41.313,-14.737 47.699,-35 1.492,-4.737 2.301,-9.774 2.301,-14.998 0,-0.001 0,-0.002 0,-0.002 0,-5.225 -0.809,-10.263 -2.303,-15 -6.386,-20.264 -25.351,-35 -47.697,-35 z"
   id="path917"
   inkscape:connector-curvature="0" />
		<path
   style="fill:#3c3a3f"
   d="m 230,207.485 c -7.109,0 -13.871,1.501 -20,4.188 -5.611,2.458 -10.686,5.917 -15,10.151 -9.248,9.078 -15,21.707 -15,35.661 v 0.002 c 0,5.224 0.809,10.261 2.301,14.998 6.387,20.263 25.352,35 47.699,35 22.347,0 41.313,-14.737 47.699,-35 1.492,-4.737 2.301,-9.774 2.301,-14.998 0,-0.001 0,-0.002 0,-0.002 0,-5.225 -0.809,-10.263 -2.303,-15 -6.386,-20.264 -25.351,-35 -47.697,-35 z"
   id="path919"
   inkscape:connector-curvature="0" />
		<path
   style="fill:#ffffff"
   d="m 116.611,246.386 c -0.194,-0.289 -0.396,-0.572 -0.605,-0.85 -0.416,-0.557 -0.861,-1.09 -1.333,-1.599 -0.472,-0.51 -0.968,-0.995 -1.489,-1.453 -3.523,-3.103 -8.131,-5 -13.184,-5 -5.053,0 -9.66,1.897 -13.184,5 -0.521,0.458 -1.018,0.943 -1.489,1.453 -0.472,0.509 -0.917,1.042 -1.334,1.599 -0.208,0.277 -0.41,0.561 -0.604,0.85 -0.389,0.577 -0.748,1.176 -1.075,1.793 -1.476,2.778 -2.313,5.944 -2.313,9.306 0,0 0,10e-4 0,0.002 0,5.974 2.647,11.329 6.814,14.998 3.525,3.102 8.133,5 13.186,5 5.053,0 9.66,-1.898 13.186,-5 4.167,-3.669 6.814,-9.024 6.814,-14.998 v -0.002 c 0,-3.361 -0.838,-6.527 -2.313,-9.306 -0.329,-0.617 -0.688,-1.216 -1.077,-1.793 z"
   id="path921"
   inkscape:connector-curvature="0" />
		<path
   style="fill:#ffffff"
   d="m 246.611,246.386 c -0.194,-0.289 -0.396,-0.572 -0.605,-0.85 -0.416,-0.557 -0.861,-1.09 -1.333,-1.599 -0.472,-0.51 -0.968,-0.995 -1.489,-1.453 -3.523,-3.103 -8.131,-5 -13.184,-5 -5.053,0 -9.66,1.897 -13.184,5 -0.521,0.458 -1.018,0.943 -1.489,1.453 -0.472,0.509 -0.917,1.042 -1.334,1.599 -0.208,0.277 -0.41,0.561 -0.604,0.85 -0.389,0.577 -0.748,1.176 -1.075,1.793 -1.476,2.778 -2.313,5.944 -2.313,9.306 0,0 0,10e-4 0,0.002 0,5.974 2.647,11.329 6.814,14.998 3.525,3.102 8.133,5 13.186,5 5.053,0 9.66,-1.898 13.186,-5 4.167,-3.669 6.814,-9.024 6.814,-14.998 v -0.002 c 0,-3.361 -0.838,-6.527 -2.313,-9.306 -0.329,-0.617 -0.688,-1.216 -1.077,-1.793 z"
   id="path923"
   inkscape:connector-curvature="0" />
	</g>
	<g
   id="g931">
		<path
   style="fill:#ffb65b"
   d="m 195.029,82.517 c -0.01,0 -0.02,-10e-4 -0.029,-10e-4 H 135 105 75 30 15 c -0.063,0 -0.123,0.009 -0.187,0.01 -0.405,0.005 -0.809,0.024 -1.206,0.061 -0.061,0.006 -0.121,0.007 -0.182,0.014 -0.424,0.044 -0.842,0.112 -1.254,0.19 -0.139,0.027 -0.275,0.057 -0.414,0.086 -0.34,0.076 -0.675,0.162 -1.006,0.26 -0.104,0.03 -0.207,0.058 -0.311,0.09 -0.369,0.118 -0.73,0.252 -1.087,0.397 -0.143,0.06 -0.284,0.12 -0.425,0.183 -0.283,0.126 -0.563,0.262 -0.836,0.404 -0.105,0.054 -0.214,0.104 -0.318,0.162 -0.362,0.199 -0.715,0.414 -1.057,0.643 -0.096,0.063 -0.188,0.13 -0.281,0.194 -0.283,0.197 -0.559,0.403 -0.826,0.618 -0.075,0.061 -0.152,0.119 -0.227,0.182 -0.33,0.275 -0.649,0.563 -0.953,0.867 -0.047,0.044 -0.088,0.092 -0.133,0.137 -0.26,0.266 -0.51,0.541 -0.75,0.826 -0.069,0.082 -0.139,0.162 -0.206,0.246 -0.265,0.326 -0.519,0.661 -0.755,1.01 -0.041,0.061 -0.077,0.123 -0.117,0.184 -0.191,0.29 -0.371,0.588 -0.542,0.893 -0.071,0.128 -0.142,0.256 -0.21,0.386 -0.16,0.306 -0.311,0.618 -0.451,0.937 -0.059,0.135 -0.115,0.271 -0.17,0.408 -0.123,0.305 -0.238,0.615 -0.342,0.93 -0.049,0.15 -0.096,0.301 -0.141,0.453 -0.1,0.339 -0.189,0.683 -0.266,1.032 C 0.326,94.417 0.304,94.515 0.284,94.615 0.207,95.005 0.148,95.4 0.102,95.801 0.088,95.923 0.076,96.046 0.065,96.17 0.028,96.613 0,97.061 0,97.516 v 60 c 0,8.284 6.716,15 15,15 h 60 30 30 45 15 c 8.284,0 15,-6.716 15,-15 V 112.515 97.516 c 0,-8.274 -6.7,-14.982 -14.971,-14.999 z"
   id="path927"
   inkscape:connector-curvature="0" />
		<path
   style="fill:#ffa828"
   d="m 195.029,82.517 c -0.01,0 -0.02,-10e-4 -0.029,-10e-4 h -60 -30 v 30 30 30 h 30 45 15 c 8.284,0 15,-6.716 15,-15 V 112.515 97.516 c 0,-8.274 -6.7,-14.982 -14.971,-14.999 z"
   id="path929"
   inkscape:connector-curvature="0" />
	</g>
	<rect
   x="90"
   y="112.516"
   style="fill:#ffffff"
   width="30"
   height="30"
   id="rect933" />
	<polygon
   style="fill:#ffffff"
   points="150,142.516 180,142.516 180,112.517 180,112.516 150,112.516 "
   id="polygon935" />
	<rect
   x="30"
   y="112.516"
   style="fill:#ffffff"
   width="30"
   height="30"
   id="rect937" />
</g>















</svg>